# xmcd
#
# Track frame offsets:
#	150
#	16006
#	54553
#	77757
#	121665
#	145952
#	168392
#	189873
#	223265
#	255230
#	285313
#	312253
#
# Disc length: 4298
#
# Revision: 1
# Processed by: cddbd v1.5.1PL0 Copyright (c) Steve Scherf et al.
# Submitted via: ExactAudioCopy v0.90b4
# Normalized: r0:TRMNUM
#
DISCID=9810c80c
DTITLE=Various Artist - Dla Kawy
DYEAR=2003
DGENRE=Blues
TTITLE0=Powitanie
TTITLE1=It's Man's World
TTITLE2=Walking On The Sunset
TTITLE3=Blues Ewy
TTITLE4=The Thrill Is Gone
TTITLE5=Ksiezyc Ty i Ja
TTITLE6=Calkiem spokojne zmeczenie
TTITLE7=Introduction-Swing Jasia
TTITLE8=Modlitwa bluesmana w pociagu
TTITLE9=Blues bardzo slaski
TTITLE10=To byl chlop
TTITLE11=Blues dla Kawy
EXTD=
EXTT0=
EXTT1=
EXTT2=
EXTT3=
EXTT4=
EXTT5=
EXTT6=
EXTT7=
EXTT8=
EXTT9=
EXTT10=
EXTT11=
PLAYORDER=
